<svg width="755" height="527" viewBox="0 0 755 527" fill="none" xmlns="http://www.w3.org/2000/svg">
<g clip-path="url(#clip0_5888_26336)">
<path d="M754.34 349.281C754.46 350.311 754.61 351.031 754.61 351.751C754.6 374.751 754.46 397.741 754.61 420.741C754.65 426.671 752.49 431.451 748.7 435.611C741.74 443.241 732.91 447.351 722.68 447.571C706.44 447.921 690.19 447.731 673.94 447.731C505.38 447.731 336.82 447.731 168.26 447.731C124.1 447.731 79.94 447.721 35.78 447.731C26.47 447.731 18.06 445.001 10.66 439.381C5.16 435.201 1.74 429.581 0.22 422.841C0.02 421.961 0.02 421.021 0.02 420.111C0 394.271 0 368.441 0 342.611C0 339.751 0.0900002 339.531 2.96 338.971C8.03 337.991 13.12 337.131 18.21 336.281C23.05 335.481 27.9 334.681 32.76 334.031C40.18 333.041 47.61 332.051 55.06 331.281C65.66 330.181 76.26 329.141 86.88 328.351C93.52 327.861 100.2 327.821 106.86 327.671C115.18 327.471 123.51 327.151 131.83 327.261C143.74 327.411 155.65 327.731 167.54 328.301C179.84 328.891 192.13 329.851 204.42 330.711C213.89 331.371 223.35 332.041 232.81 332.851C244.75 333.861 256.68 335.051 268.62 336.101C275.25 336.681 281.9 337.111 288.53 337.681C299.48 338.621 310.41 339.661 321.36 340.601C328.08 341.181 334.81 341.621 341.53 342.211C348 342.781 354.45 343.471 360.92 344.081C366.8 344.631 372.69 345.141 378.58 345.661C384.96 346.221 391.35 346.761 397.74 347.341C404.29 347.941 410.84 348.561 417.39 349.191C426.75 350.091 436.12 350.981 445.48 351.891C453.18 352.641 460.89 353.401 468.59 354.171C480.19 355.341 491.78 356.501 503.37 357.701C514.63 358.871 525.88 360.131 537.14 361.241C546.41 362.161 555.69 363.091 564.98 363.711C573.45 364.271 581.94 364.501 590.43 364.721C599.59 364.961 608.75 365.211 617.9 365.101C628.64 364.971 639.38 364.721 650.09 364.041C662.04 363.281 673.98 362.171 685.89 360.841C697.8 359.511 709.68 357.901 721.52 356.061C728.83 354.931 736.03 353.161 743.28 351.651C746.84 350.911 750.39 350.121 754.36 349.271L754.34 349.281Z" fill="#616668"/>
<path d="M0.290033 92.9903C0.190033 91.8903 0.0500326 91.0903 0.0500326 90.3003C0.0400326 69.8003 -0.0199674 49.3003 0.0600326 28.8103C0.0900326 20.1903 4.22003 13.4803 10.84 8.34033C17.96 2.81033 26.08 0.0903342 35.17 0.0903342C260.64 0.110334 486.12 0.0903342 711.59 0.0903342C715.17 0.0903342 718.77 -0.119666 722.34 0.130334C734.54 0.990334 744.58 5.90033 751.48 16.3503C753.78 19.8403 754.77 23.6903 754.75 27.9203C754.68 50.0803 754.72 72.2503 754.72 94.4103C754.72 96.2403 754.69 98.0803 754.73 99.9103C754.77 101.47 754.12 102.05 752.53 102.21C738.7 103.61 724.89 105.22 711.06 106.51C702.61 107.3 694.11 107.65 685.63 108.18C675.41 108.82 665.2 109.57 654.97 110.01C647.57 110.33 640.14 110.31 632.73 110.3C614.82 110.28 596.9 110.34 578.99 110.05C564.59 109.82 550.19 109.15 535.79 108.65C527.72 108.37 519.64 108.11 511.57 107.73C499.35 107.15 487.13 106.47 474.91 105.84C471.17 105.65 467.42 105.57 463.68 105.31C454.88 104.71 446.08 104.02 437.28 103.38C429.89 102.84 422.49 102.38 415.11 101.79C407.98 101.21 400.85 100.5 393.72 99.8703C387.67 99.3303 381.6 98.9003 375.56 98.3003C366.28 97.3803 357.02 96.3403 347.75 95.3903C341.95 94.8003 336.15 94.2903 330.35 93.7303C326.71 93.3703 323.06 93.0103 319.42 92.6003C311.15 91.6603 302.89 90.6503 294.61 89.7403C281.71 88.3203 268.79 87.0003 255.89 85.5703C247.29 84.6203 238.7 83.5203 230.1 82.5503C224.23 81.8903 218.34 81.3203 212.46 80.7303C206.75 80.1603 201.04 79.5803 195.32 79.0703C192 78.7703 188.68 78.5503 185.35 78.3903C179.36 78.0903 173.38 77.7403 167.39 77.6403C156.73 77.4603 146.06 77.2203 135.4 77.4203C122.33 77.6603 109.25 78.0803 96.21 78.9003C85.59 79.5703 74.98 80.7803 64.41 82.0903C53.02 83.5003 41.64 85.0703 30.33 86.9903C21.64 88.4703 13.07 90.6003 4.44003 92.4203C3.16003 92.6903 1.85003 92.7903 0.280033 93.0103L0.290033 92.9903Z" fill="#616668"/>
<path d="M168.77 234.719C168.77 259.049 168.77 283.379 168.77 307.709C168.77 310.899 168.37 311.289 165.18 311.289C158.6 311.289 152.02 311.289 145.43 311.309C141.65 311.319 141.69 311.339 141.7 307.399C141.72 295.649 141.71 283.899 141.71 272.159C141.71 243.159 141.71 214.169 141.7 185.169C141.7 184.839 141.7 184.499 141.7 184.169C141.65 181.429 141.47 181.199 138.67 181.199C120.42 181.189 102.18 181.199 83.9299 181.199C81.0399 181.199 80.8499 181.419 80.8499 184.369C80.8499 214.949 80.8299 245.529 80.8899 276.109C80.8899 278.569 81.1999 281.099 81.7799 283.489C82.7599 287.509 86.0699 288.88 89.7199 289.169C97.7499 289.799 105.47 288.369 112.82 285.029C116.4 283.399 116.67 283.599 116.38 287.559C115.92 293.789 115.38 300.009 115.03 306.239C114.91 308.239 113.72 308.929 112.17 309.529C104.25 312.589 96.0699 314.289 87.5599 314.199C83.3199 314.16 79.1099 314.279 74.8899 313.309C66.5399 311.409 60.7399 306.569 57.3199 298.829C54.9799 293.519 53.8599 287.909 53.8499 282.099C53.8099 249.939 53.7999 217.779 53.7699 185.619C53.7699 182.673 52.3266 181.199 49.4399 181.199C40.6899 181.199 31.9399 181.199 23.1899 181.189C19.6899 181.189 19.7199 181.159 19.7399 177.749C19.7699 171.999 19.7399 166.249 19.6999 160.499C19.6799 157.869 19.8299 157.629 22.4699 157.629C31.7999 157.609 41.1299 157.629 50.4699 157.619C53.7399 157.619 53.7499 157.599 53.7499 154.229C53.7299 138.399 53.7299 122.569 53.6799 106.739C53.6799 105.229 54.1999 104.489 55.7399 104.199C63.0899 102.819 70.4299 101.349 77.7699 99.8995C79.8399 99.4895 80.8099 100.159 80.8499 102.279C80.9099 105.609 80.8699 108.949 80.8699 112.279C80.8699 126.359 80.8499 140.439 80.8399 154.519C80.8399 157.449 80.9899 157.619 83.9499 157.619C110.86 157.619 137.78 157.619 164.69 157.619C165.27 157.619 165.86 157.589 166.44 157.619C167.9 157.709 168.77 158.409 168.76 159.969C168.76 160.639 168.78 161.299 168.78 161.969C168.78 186.219 168.78 210.459 168.78 234.709L168.77 234.719Z" fill="#616668"/>
<path d="M700.48 221.899C700.65 221.249 700.89 220.779 700.88 220.329C700.75 213.999 700.96 207.639 700.32 201.359C699.66 194.919 697.11 189.159 691.6 185.139C688.51 182.889 685.06 181.469 681.35 180.769C673.22 179.249 665.11 179.759 657.05 181.419C648.65 183.139 640.85 186.359 633.46 190.649C632.68 191.099 631.85 191.489 630.77 192.039C630.2 191.219 629.53 190.499 629.13 189.649C626.4 183.869 623.74 178.059 621.04 172.269C620.04 170.119 620.22 169.519 622.41 168.359C629.13 164.799 636.19 162.189 643.51 160.139C653.87 157.239 664.44 156.279 675.11 156.279C682.54 156.279 689.95 157.059 697.04 159.369C710.17 163.639 719.81 171.749 724.51 185.149C727 192.249 727.91 199.519 727.89 206.989C727.85 231.739 727.87 256.489 727.88 281.239C727.88 290.569 727.89 299.909 727.9 309.239C727.9 311.773 726.593 313.043 723.98 313.049C717.15 313.049 710.32 313.049 703.49 313.049C701.5 313.049 700.95 312.589 700.91 310.559C700.85 307.079 700.89 303.609 700.89 299.779C700.22 300.119 699.69 300.269 699.32 300.599C692.78 306.299 685.47 310.659 677.13 313.199C667.85 316.029 658.44 316.979 648.77 315.569C640.66 314.389 633.09 311.979 626.31 307.239C618.52 301.779 613.32 294.469 610.39 285.489C607.39 276.289 606.86 266.769 608.14 257.319C609.73 245.569 615.35 235.799 624.76 228.409C630.59 223.829 637.17 220.779 644.3 218.709C653.86 215.929 663.62 215.159 673.46 215.819C682.37 216.419 691.09 218.209 699.42 221.599C699.65 221.689 699.89 221.739 700.44 221.899H700.48ZM700.94 259.709H700.92C700.92 257.049 700.92 254.379 700.92 251.719C700.913 247.179 698.723 244.176 694.35 242.709C694.27 242.679 694.19 242.669 694.11 242.639C687.74 240.249 681.1 239.319 674.36 238.729C667.18 238.109 660.11 238.269 653.09 240.119C641.56 243.149 634.74 251.219 634.34 263.139C634.16 268.349 634.77 273.449 636.58 278.349C638.67 283.999 642.5 288.129 648.07 290.469C656.84 294.169 665.85 293.599 674.73 291.219C684.75 288.529 692.8 282.619 699.5 274.779C700.54 273.559 701.01 272.299 700.98 270.699C700.9 267.039 700.95 263.369 700.95 259.709H700.94Z" fill="#616668"/>
<path d="M370.45 154.18C375.32 154.73 380.26 154.89 385.03 155.9C395.7 158.16 405.29 162.73 413.41 170.2C423 179.02 429.02 189.93 432.67 202.3C436.17 214.16 437.35 226.3 436.81 238.58C436.36 248.92 434.83 259.14 431.26 268.92C425.07 285.86 414.81 299.45 398.4 307.73C393.35 310.28 387.96 311.95 382.38 313.09C375.69 314.45 368.94 314.54 362.23 314C352.93 313.25 344.11 310.57 336.08 305.69C323.93 298.31 315.53 287.79 310.03 274.75C307.72 269.28 305.9 263.66 304.84 257.86C303.83 252.32 303.3 246.67 302.85 241.04C302.27 233.89 302.64 226.71 303.52 219.61C304.29 213.43 305.6 207.35 307.57 201.39C309.49 195.6 311.94 190.09 315.11 184.9C322.27 173.18 332.05 164.48 344.82 159.28C353.01 155.95 361.52 154.25 370.44 154.18H370.45ZM409.94 234.94C409.86 225.13 408.92 216.3 406.36 207.7C404.39 201.08 401.46 194.92 396.69 189.88C386.61 179.23 373.99 176.79 360.24 179.76C349.83 182.01 342.35 188.53 337.33 197.92C333.66 204.77 331.73 212.16 330.84 219.79C329.96 227.39 329.71 235.04 330.31 242.72C330.93 250.67 332.29 258.39 335.29 265.79C337.96 272.37 341.67 278.22 347.33 282.64C352.07 286.34 357.39 288.63 363.38 289.62C373.3 291.25 382.36 289.34 390.69 283.78C398.95 278.26 403.34 270.02 406.23 260.93C409 252.23 409.82 243.19 409.93 234.95L409.94 234.94Z" fill="#616668"/>
<path d="M285.56 194.921C283.11 192.901 281.17 191.341 279.27 189.731C273.8 185.081 267.68 181.551 260.68 179.941C250.62 177.631 240.83 178.031 231.84 183.921C225.67 187.971 221.34 193.571 218.24 200.151C215.82 205.281 214.32 210.691 213.23 216.271C211.21 226.621 211.35 237.041 212.52 247.371C213.8 258.641 217.12 269.391 224.57 278.341C229.35 284.081 235.51 287.611 242.83 289.331C248.69 290.711 254.47 290.371 260.14 288.971C263.56 288.131 266.87 286.551 269.98 284.851C274.52 282.361 278.45 278.991 282.12 275.331C284.27 273.191 284.65 273.181 286.72 275.381C291.06 279.981 295.37 284.611 299.67 289.251C300.88 290.551 300.86 291.081 299.59 292.411C292.22 300.181 283.83 306.501 273.71 310.241C267.36 312.591 260.79 314.031 253.97 314.171C247.63 314.301 241.3 314.311 235.09 312.781C228.51 311.161 222.27 308.701 216.54 305.031C210.09 300.901 204.57 295.781 200.06 289.591C195.51 283.371 192.1 276.561 189.6 269.271C187.6 263.421 186.17 257.441 185.45 251.331C184.54 243.561 183.8 235.761 184.72 227.921C185.29 223.051 185.45 218.111 186.33 213.301C189.49 196.051 196.66 180.841 210.18 169.211C217.2 163.171 225.25 158.991 234.3 156.651C244.16 154.101 254.03 153.981 264 155.571C275.92 157.471 286.58 162.191 295.99 169.731C297.48 170.931 298.98 172.121 300.46 173.341C301.41 174.121 301.45 174.931 300.65 175.911C295.98 181.661 291.33 187.431 286.69 193.201C286.32 193.651 286.04 194.181 285.55 194.941L285.56 194.921Z" fill="#616668"/>
<path d="M512.79 231.63C512.72 242.46 513.57 250.99 515.94 259.28C518.42 267.95 522.3 275.93 529.21 282.02C533.66 285.94 538.87 288.24 544.74 289.47C550.48 290.68 556.06 290.24 561.56 288.89C567.52 287.42 572.83 284.42 577.52 280.41C579.67 278.57 581.71 276.6 583.84 274.74C585.39 273.38 585.81 273.36 587.17 274.8C591.74 279.64 596.26 284.54 600.8 289.41C601.79 290.47 601.66 291.51 600.68 292.49C592.71 300.46 583.95 307.19 573.06 310.78C560.81 314.82 548.36 315.51 535.86 312.63C520.62 309.12 508.66 300.59 499.77 287.69C494.61 280.2 491.02 272 488.78 263.24C487.59 258.58 486.7 253.8 486.22 249.02C485.65 243.23 485.34 237.38 485.48 231.57C485.78 218.41 487.88 205.53 493.34 193.44C499.39 180.02 508.5 169.21 521.52 162.05C527.36 158.84 533.61 156.69 540.25 155.53C549.41 153.93 558.53 154.12 567.56 155.95C578.56 158.18 588.57 162.76 597.31 169.91C598.66 171.02 599.99 172.15 601.37 173.22C602.47 174.06 602.53 174.87 601.65 175.95C597.07 181.56 592.54 187.2 587.97 192.81C586.51 194.6 586.15 194.57 584.33 193.16C580.52 190.22 576.89 186.96 572.78 184.5C563.56 178.97 553.46 177.28 542.95 179.55C535.84 181.09 529.94 185 525.31 190.65C519.26 198.04 516.03 206.64 514.29 215.96C513.18 221.9 512.9 227.85 512.79 231.63Z" fill="#616668"/>
<path d="M441.3 293.319C440.87 282.489 451.04 271.799 462 272.039C472.94 272.279 482.9 282.379 482.55 294.109C482.23 304.839 472.64 314.289 461.65 314.139C450.17 313.979 441.06 304.869 441.3 293.319Z" fill="#616668"/>
<path d="M155.13 137.16C145.28 137.29 137.35 129.38 137.12 119.83C136.85 108.89 145.06 100.46 155.06 100.41C164.82 100.37 173.44 108.8 173.3 119.37C173.18 129.16 164.83 137.37 155.13 137.15V137.16Z" fill="#616668"/>
<path d="M35.57 515.259V488.259H26.95C25.8 488.259 25.02 487.519 25.02 486.439C25.02 485.359 25.81 484.619 26.95 484.619H48.24C49.39 484.619 50.17 485.359 50.17 486.439C50.17 487.519 49.38 488.259 48.24 488.259H39.62V515.259C39.62 516.539 38.83 517.349 37.6 517.349C36.37 517.349 35.58 516.539 35.58 515.259H35.57Z" fill="#616668"/>
<path d="M37.59 518.349C35.81 518.349 34.57 517.079 34.57 515.259V489.259H26.95C25.25 489.259 24.02 488.069 24.02 486.439C24.02 484.809 25.25 483.619 26.95 483.619H48.24C49.94 483.619 51.17 484.809 51.17 486.439C51.17 488.069 49.94 489.259 48.24 489.259H40.62V515.259C40.62 517.079 39.38 518.349 37.6 518.349H37.59ZM26.94 485.619C26.66 485.619 26.01 485.699 26.01 486.439C26.01 487.179 26.66 487.259 26.94 487.259H36.56V515.259C36.56 515.979 36.9 516.349 37.58 516.349C38.26 516.349 38.6 515.979 38.6 515.259V487.259H48.22C48.5 487.259 49.15 487.179 49.15 486.439C49.15 485.699 48.5 485.619 48.22 485.619H26.95H26.94Z" fill="#616668"/>
<path d="M50.6301 515.35V495.25C50.6301 494.08 51.3901 493.27 52.4701 493.27C53.5501 493.27 54.3101 494.08 54.3101 495.25V497.5H54.4001C55.0701 495.07 57.3601 493.28 59.7001 493.28C60.5501 493.28 61.1601 493.48 61.5401 493.84C61.8801 494.15 62.0301 494.6 62.0301 495.14C62.0301 495.75 61.8301 496.2 61.4201 496.51C61.0201 496.85 60.4101 497 59.5601 497C56.0301 497 54.5301 499.54 54.5301 502.53V515.36C54.5301 516.6 53.7201 517.45 52.5801 517.45C51.4401 517.45 50.6301 516.6 50.6301 515.36V515.35Z" fill="#616668"/>
<path d="M52.5801 518.44C50.8701 518.44 49.6301 517.14 49.6301 515.35V495.25C49.6301 493.53 50.8301 492.27 52.4701 492.27C53.7801 492.27 54.8101 493.07 55.1701 494.27C56.3801 493.04 58.0201 492.27 59.7001 492.27C60.7901 492.27 61.6401 492.55 62.2301 493.1C62.7601 493.59 63.0401 494.3 63.0401 495.13C63.0401 496.28 62.5001 496.94 62.0501 497.29C61.4901 497.76 60.6701 498 59.5701 498C55.9301 498 55.5401 501.17 55.5401 502.53V515.36C55.5401 517.15 54.3001 518.45 52.5901 518.45L52.5801 518.44ZM52.4701 494.27C51.9401 494.27 51.6301 494.64 51.6301 495.25V515.35C51.6301 516.03 51.9901 516.44 52.5801 516.44C53.1701 516.44 53.5301 516.03 53.5301 515.35V502.52C53.5301 500.91 53.9001 499.55 54.5801 498.49H53.4001L53.3101 497.49V495.24C53.3101 494.63 53.0001 494.26 52.4701 494.26V494.27ZM59.7001 494.27C57.8801 494.27 56.1201 495.61 55.4601 497.45C56.4801 496.52 57.8801 496 59.5601 496C60.1501 496 60.5801 495.91 60.7801 495.74C60.8801 495.66 61.0301 495.55 61.0301 495.14C61.0301 494.87 60.9701 494.68 60.8501 494.57C60.6501 494.38 60.2401 494.28 59.6901 494.28L59.7001 494.27Z" fill="#616668"/>
<path d="M65.6899 510.43C65.6899 506.43 68.7699 503.92 74.1599 503.6L80.8799 503.22V501.27C80.8799 498.42 78.9899 496.71 75.7599 496.71C73.2199 496.71 71.4899 497.63 70.1899 499.94C69.8299 500.59 69.3099 500.88 68.5699 500.88C67.5599 500.88 66.8399 500.18 66.8399 499.13C66.8399 498.64 66.9999 498.07 67.3099 497.51C68.6399 494.95 72.0499 493.26 75.8499 493.26C81.3299 493.26 84.7899 496.22 84.7899 500.87V515.45C84.7899 516.62 84.0299 517.43 82.9499 517.43C81.8699 517.43 81.0899 516.62 81.0899 515.45V513H80.9999C79.6099 515.67 76.6199 517.42 73.4799 517.42C68.8299 517.42 65.7099 514.61 65.7099 510.41L65.6899 510.43ZM80.8699 508.16V506.25L74.5999 506.63C71.4599 506.83 69.6599 508.22 69.6599 510.43C69.6599 512.64 71.5199 514.11 74.3299 514.11C78.0099 514.11 80.8699 511.53 80.8699 508.16Z" fill="#616668"/>
<path d="M82.9399 518.44C81.3999 518.44 80.2499 517.36 80.0899 515.82C78.3499 517.46 75.9699 518.44 73.4599 518.44C68.2099 518.44 64.6899 515.22 64.6899 510.43C64.6899 505.64 68.2099 502.95 74.0999 502.6L79.8699 502.27V501.26C79.8699 498.16 77.2899 497.7 75.7499 497.7C73.4999 497.7 72.1399 498.49 71.0499 500.42C70.5199 501.38 69.6799 501.87 68.5599 501.87C66.9799 501.87 65.8299 500.71 65.8299 499.12C65.8299 498.44 66.0399 497.71 66.4299 497.01C67.9199 494.13 71.6199 492.25 75.8399 492.25C81.8799 492.25 85.7799 495.63 85.7799 500.86V515.44C85.7799 517.16 84.5799 518.42 82.9399 518.42V518.44ZM80.6499 512.02H81.9899L82.0799 513.02V515.47C82.0799 516.08 82.3999 516.45 82.9399 516.45C83.4799 516.45 83.7799 516.08 83.7799 515.47V500.89C83.7799 496.81 80.7399 494.28 75.8399 494.28C72.4099 494.28 69.3399 495.77 68.1899 497.99C67.9499 498.41 67.8299 498.82 67.8299 499.15C67.8299 499.64 68.0899 499.9 68.5599 499.9C68.9499 499.9 69.1199 499.8 69.2999 499.47C70.7399 496.91 72.7899 495.72 75.7499 495.72C79.5299 495.72 81.8699 497.85 81.8699 501.28V504.18L74.2099 504.62C71.3999 504.78 66.6899 505.76 66.6899 510.45C66.6899 514.1 69.3499 516.46 73.4599 516.46C76.0799 516.46 78.6199 515.05 79.9099 512.91C78.5399 514.29 76.5699 515.14 74.3399 515.14C70.9499 515.14 68.6699 513.26 68.6699 510.46C68.6699 507.66 70.8699 505.9 74.5499 505.67L81.8799 505.22V508.19C81.8799 509.62 81.4299 510.95 80.6499 512.04V512.02ZM79.8799 507.32L74.6699 507.64C73.1799 507.74 70.6699 508.23 70.6699 510.44C70.6699 512.42 72.5699 513.12 74.3399 513.12C77.4999 513.12 79.8799 510.99 79.8799 508.17V507.32Z" fill="#616668"/>
<path d="M98.0399 515.46L90.6099 496.08C90.4799 495.74 90.4099 495.41 90.4099 495.07C90.4099 493.99 91.1999 493.27 92.3599 493.27C93.2399 493.27 93.8199 493.74 94.1799 494.75L100.58 512.88H100.67L107.09 494.75C107.45 493.74 108.03 493.27 108.89 493.27C110.06 493.27 110.82 493.99 110.82 495.07C110.82 495.41 110.75 495.74 110.62 496.08L103.21 515.46C102.69 516.81 101.86 517.44 100.6 517.44C99.3399 517.44 98.5999 516.88 98.0399 515.46Z" fill="#616668"/>
<path d="M100.6 518.44C98.8999 518.44 97.8299 517.64 97.1099 515.83L89.6799 496.44C89.4999 496 89.4099 495.53 89.4099 495.07C89.4099 493.45 90.6499 492.27 92.3599 492.27C93.2699 492.27 94.4899 492.64 95.1199 494.42L100.63 510.01L106.15 494.42C106.78 492.64 107.99 492.27 108.89 492.27C110.62 492.27 111.82 493.42 111.82 495.07C111.82 495.53 111.73 496 111.55 496.45L104.14 515.82C103.47 517.56 102.28 518.44 100.6 518.44ZM98.9699 515.1C99.4299 516.25 99.8399 516.44 100.6 516.44C101.3 516.44 101.85 516.21 102.27 515.11L109.68 495.73C109.77 495.5 109.82 495.29 109.82 495.08C109.82 494.42 109.31 494.28 108.89 494.28C108.65 494.28 108.33 494.28 108.04 495.1L101.38 513.89H99.9699L99.6399 513.22L93.2399 495.09C92.9499 494.27 92.6099 494.27 92.3599 494.27C91.9999 494.27 91.4099 494.37 91.4099 495.07C91.4099 495.28 91.4499 495.49 91.5399 495.71L98.9799 515.1H98.9699Z" fill="#616668"/>
<path d="M114.74 505.44C114.74 498.07 118.9 493.27 125.34 493.27C131.31 493.27 135.51 497.74 135.51 504.14C135.51 505.56 134.7 506.41 133.35 506.41H118.75C118.75 511.13 121.33 514.05 125.51 514.05C128.3 514.05 130 513.06 131.82 510.41C132.22 509.85 132.67 509.62 133.28 509.62C134.31 509.62 135.01 510.29 135.01 511.33C135.01 511.64 134.9 512.05 134.72 512.48C133.22 515.65 129.94 517.44 125.67 517.44C118.77 517.44 114.73 512.99 114.73 505.45L114.74 505.44ZM131.47 503.35C131.38 499.31 128.89 496.66 125.27 496.66C121.65 496.66 119.03 499.33 118.78 503.35H131.47Z" fill="#616668"/>
<path d="M125.68 518.439C118.2 518.439 113.74 513.579 113.74 505.449C113.74 497.319 118.4 492.279 125.34 492.279C131.92 492.279 136.51 497.159 136.51 504.149C136.51 506.109 135.24 507.419 133.35 507.419H119.79C120.11 510.969 122.2 513.059 125.51 513.059C127.97 513.059 129.35 512.249 131 509.849C131.59 509.019 132.34 508.629 133.28 508.629C134.86 508.629 136.01 509.769 136.01 511.339C136.01 511.769 135.89 512.289 135.64 512.869C133.95 516.429 130.32 518.449 125.67 518.449L125.68 518.439ZM125.34 494.269C119.51 494.269 115.74 498.659 115.74 505.439C115.74 512.219 119.36 516.429 125.68 516.429C129.53 516.429 132.5 514.829 133.83 512.039C133.97 511.709 134.03 511.439 134.03 511.319C134.03 510.839 133.79 510.609 133.3 510.609C133.04 510.609 132.88 510.659 132.65 510.979C130.65 513.889 128.65 515.029 125.53 515.029C120.82 515.029 117.77 511.639 117.77 506.389V505.389H133.37C133.87 505.389 134.53 505.259 134.53 504.119C134.53 498.309 130.76 494.249 125.36 494.249L125.34 494.269ZM132.49 504.349H117.71L117.78 503.289C118.06 498.729 121.07 495.659 125.27 495.659C129.47 495.659 132.37 498.739 132.47 503.329L132.49 504.349ZM119.91 502.349H130.39C129.97 499.469 128.04 497.659 125.27 497.659C122.5 497.659 120.46 499.469 119.91 502.349Z" fill="#616668"/>
<path d="M141.95 515.351V486.311C141.95 485.071 142.76 484.221 143.9 484.221C145.04 484.221 145.85 485.071 145.85 486.311V515.351C145.85 516.591 145.04 517.441 143.9 517.441C142.76 517.441 141.95 516.591 141.95 515.351Z" fill="#616668"/>
<path d="M143.9 518.441C142.19 518.441 140.95 517.141 140.95 515.351V486.311C140.95 484.521 142.19 483.221 143.9 483.221C145.61 483.221 146.85 484.521 146.85 486.311V515.351C146.85 517.141 145.61 518.441 143.9 518.441ZM143.9 485.221C143.3 485.221 142.95 485.631 142.95 486.311V515.351C142.95 516.031 143.31 516.441 143.9 516.441C144.49 516.441 144.85 516.031 144.85 515.351V486.311C144.85 485.631 144.49 485.221 143.9 485.221Z" fill="#616668"/>
<path d="M165.77 515.261V486.401C165.77 485.121 166.56 484.311 167.79 484.311C169.02 484.311 169.81 485.121 169.81 486.401V515.261C169.81 516.541 169.02 517.351 167.79 517.351C166.56 517.351 165.77 516.541 165.77 515.261Z" fill="#616668"/>
<path d="M167.8 518.351C166.02 518.351 164.78 517.081 164.78 515.261V486.401C164.78 484.581 166.02 483.311 167.8 483.311C169.58 483.311 170.82 484.581 170.82 486.401V515.261C170.82 517.081 169.58 518.351 167.8 518.351ZM167.8 485.311C167.12 485.311 166.78 485.681 166.78 486.401V515.261C166.78 515.981 167.12 516.351 167.8 516.351C168.48 516.351 168.82 515.981 168.82 515.261V486.401C168.82 485.681 168.48 485.311 167.8 485.311Z" fill="#616668"/>
<path d="M177.8 515.35V495.25C177.8 494.08 178.56 493.27 179.64 493.27C180.72 493.27 181.48 494.08 181.48 495.25V497.41H181.57C182.87 494.89 185.37 493.28 188.98 493.28C194.1 493.28 197.07 496.58 197.07 501.88V515.36C197.07 516.6 196.26 517.45 195.12 517.45C193.98 517.45 193.17 516.6 193.17 515.36V502.58C193.17 498.81 191.4 496.74 187.8 496.74C184.2 496.74 181.71 499.35 181.71 503.3V515.36C181.71 516.6 180.9 517.45 179.76 517.45C178.62 517.45 177.81 516.6 177.81 515.36L177.8 515.35Z" fill="#616668"/>
<path d="M195.12 518.44C193.41 518.44 192.17 517.14 192.17 515.35V502.57C192.17 499.27 190.78 497.73 187.8 497.73C184.66 497.73 182.71 499.86 182.71 503.29V515.35C182.71 517.14 181.47 518.44 179.76 518.44C178.05 518.44 176.81 517.14 176.81 515.35V495.25C176.81 493.53 178.01 492.27 179.65 492.27C181.09 492.27 182.19 493.23 182.44 494.62C184.08 493.09 186.33 492.27 189 492.27C194.6 492.27 198.09 495.95 198.09 501.87V515.35C198.09 517.14 196.85 518.44 195.14 518.44H195.12ZM187.8 495.73C191.91 495.73 194.17 498.16 194.17 502.57V515.35C194.17 516.03 194.53 516.44 195.12 516.44C195.71 516.44 196.07 516.03 196.07 515.35V501.87C196.07 497.04 193.49 494.27 188.98 494.27C185.93 494.27 183.67 495.51 182.46 497.86L182.2 498.35C183.44 496.69 185.4 495.72 187.79 495.72L187.8 495.73ZM179.65 494.27C179.12 494.27 178.81 494.64 178.81 495.25V515.35C178.81 516.03 179.17 516.44 179.76 516.44C180.35 516.44 180.71 516.03 180.71 515.35V503.29C180.71 501.35 181.24 499.68 182.17 498.41H180.57L180.48 497.41V495.25C180.48 494.64 180.17 494.27 179.64 494.27H179.65Z" fill="#616668"/>
<path d="M203.19 505.351C203.19 498.031 207.21 493.271 213.1 493.271C216.45 493.271 219.14 494.911 220.53 497.471H220.62V486.311C220.62 485.071 221.43 484.221 222.57 484.221C223.71 484.221 224.52 485.071 224.52 486.311V515.531C224.52 516.651 223.73 517.441 222.61 517.441C221.49 517.441 220.61 516.681 220.61 515.531V512.861H220.54C219.26 515.651 216.83 517.441 213.17 517.441C207.22 517.441 203.17 512.681 203.17 505.361L203.19 505.351ZM220.64 505.351C220.64 500.141 217.94 496.701 213.92 496.701C209.9 496.701 207.18 500.071 207.18 505.351C207.18 510.631 209.79 514.001 213.92 514.001C218.05 514.001 220.64 510.591 220.64 505.351Z" fill="#616668"/>
<path d="M222.62 518.44C221.05 518.44 219.84 517.39 219.65 515.93C218.03 517.56 215.81 518.44 213.19 518.44C206.61 518.44 202.19 513.18 202.19 505.36C202.19 497.54 206.57 492.28 213.1 492.28C215.64 492.28 217.93 493.16 219.62 494.71V486.32C219.62 484.53 220.86 483.23 222.57 483.23C224.28 483.23 225.52 484.53 225.52 486.32V515.54C225.52 517.23 224.3 518.45 222.61 518.45L222.62 518.44ZM219.91 511.86H221.55L221.62 512.86V515.53C221.62 516.16 222.12 516.44 222.62 516.44C223.19 516.44 223.53 516.1 223.53 515.53V486.31C223.53 485.63 223.17 485.22 222.58 485.22C221.99 485.22 221.63 485.63 221.63 486.31V498.47H220.04L219.67 497.95C218.4 495.61 216.01 494.27 213.11 494.27C207.7 494.27 204.2 498.62 204.2 505.35C204.2 512.08 207.73 516.43 213.2 516.43C216.22 516.43 218.46 515.05 219.66 512.43L219.93 511.85L219.91 511.86ZM213.93 515.01C209.23 515.01 206.19 511.22 206.19 505.36C206.19 499.5 209.23 495.71 213.93 495.71C218.63 495.71 221.65 499.59 221.65 505.36C221.65 511.13 218.55 515.01 213.93 515.01ZM213.93 497.72C210.39 497.72 208.19 500.65 208.19 505.37C208.19 510.09 210.39 513.02 213.93 513.02C217.47 513.02 219.65 510.02 219.65 505.37C219.65 500.72 217.41 497.72 213.93 497.72Z" fill="#616668"/>
<path d="M231.99 508.83V495.35C231.99 494.11 232.8 493.26 233.94 493.26C235.08 493.26 235.89 494.11 235.89 495.35V508.13C235.89 511.93 237.66 513.97 241.28 513.97C245.08 513.97 247.37 511.36 247.37 507.39V495.35C247.37 494.11 248.18 493.26 249.32 493.26C250.46 493.26 251.27 494.11 251.27 495.35V515.45C251.27 516.57 250.55 517.43 249.43 517.43C248.31 517.43 247.57 516.58 247.57 515.45V513.23H247.48C246.09 515.93 243.66 517.43 240.07 517.43C234.97 517.43 231.98 514.13 231.98 508.83H231.99Z" fill="#616668"/>
<path d="M249.45 518.44C248.02 518.44 246.89 517.45 246.64 516.06C245 517.62 242.78 518.44 240.08 518.44C234.48 518.44 230.99 514.76 230.99 508.84V495.36C230.99 493.57 232.23 492.27 233.94 492.27C235.65 492.27 236.89 493.57 236.89 495.36V508.14C236.89 511.44 238.29 512.98 241.28 512.98C244.47 512.98 246.37 510.89 246.37 507.4V495.36C246.37 493.57 247.61 492.27 249.32 492.27C251.03 492.27 252.27 493.57 252.27 495.36V515.46C252.27 517.18 251.07 518.44 249.43 518.44H249.45ZM247.01 512.24H248.5L248.59 513.24V515.46C248.59 515.93 248.82 516.44 249.45 516.44C250.23 516.44 250.29 515.69 250.29 515.46V495.36C250.29 494.68 249.93 494.27 249.34 494.27C248.75 494.27 248.39 494.68 248.39 495.36V507.4C248.39 509.33 247.9 510.98 247.01 512.24ZM233.96 494.27C233.36 494.27 233.01 494.68 233.01 495.36V508.84C233.01 513.67 235.59 516.44 240.1 516.44C243.22 516.44 245.35 515.24 246.62 512.78L246.66 512.7C245.42 514.16 243.58 514.98 241.31 514.98C237.19 514.98 234.92 512.55 234.92 508.14V495.36C234.92 494.68 234.56 494.27 233.97 494.27H233.96Z" fill="#616668"/>
<path d="M258.21 512.65C258.08 512.31 258.03 512.02 258.03 511.73C258.03 510.7 258.79 510.11 259.8 510.11C260.5 510.11 261.06 510.47 261.51 511.28C262.68 513.32 264.07 514.24 267.06 514.24C270.05 514.24 272.07 512.94 272.07 510.76C272.07 509.08 271.1 508.18 268.48 507.53L264.91 506.63C260.4 505.51 258.22 503.37 258.22 500.09C258.22 496.02 261.79 493.26 267.07 493.26C270.91 493.26 274.32 495.42 274.93 498.22C274.97 498.44 275 498.62 275 498.8C275 499.72 274.42 500.33 273.47 500.33C272.71 500.33 272.17 500.08 271.74 499.27C270.73 497.32 269.22 496.46 266.84 496.46C264.03 496.46 262.08 497.88 262.08 499.87C262.08 501.49 263.34 502.61 265.9 503.24L269.38 504.09C274.25 505.28 276.05 506.99 276.05 510.42C276.05 514.6 272.3 517.41 266.75 517.41C262.59 517.41 259.34 515.55 258.21 512.63V512.65Z" fill="#616668"/>
<path d="M266.75 518.44C262.2 518.44 258.57 516.36 257.28 513.02C257.11 512.59 257.03 512.18 257.03 511.73C257.03 510.19 258.17 509.11 259.8 509.11C260.55 509.11 261.61 509.4 262.38 510.79C263.31 512.41 264.29 513.24 267.05 513.24C268.99 513.24 271.06 512.59 271.06 510.76C271.06 509.88 270.85 509.15 268.23 508.5L264.66 507.6C259.72 506.37 257.21 503.85 257.21 500.09C257.21 495.48 261.26 492.26 267.06 492.26C271.39 492.26 275.19 494.73 275.9 498.01C275.96 498.33 275.99 498.57 275.99 498.8C275.99 500.29 274.95 501.33 273.46 501.33C272.25 501.33 271.42 500.83 270.85 499.74C270.01 498.12 268.85 497.47 266.84 497.47C264.63 497.47 263.08 498.46 263.08 499.88C263.08 500.29 263.08 501.53 266.14 502.28L269.62 503.13C274.08 504.22 277.05 505.88 277.05 510.44C277.05 515 272.91 518.43 266.75 518.43V518.44ZM259.81 511.12C259.04 511.12 259.04 511.58 259.04 511.74C259.04 511.94 259.07 512.1 259.15 512.29C260.13 514.86 263.05 516.45 266.75 516.45C271.71 516.45 275.05 514.04 275.05 510.46C275.05 507.92 274.11 506.31 269.14 505.1L265.66 504.25C261.87 503.32 261.08 501.38 261.08 499.91C261.08 497.31 263.45 495.5 266.84 495.5C269.61 495.5 271.44 496.56 272.62 498.85C272.85 499.29 273.03 499.36 273.46 499.36C273.84 499.36 273.99 499.21 273.99 498.83C273.99 498.71 273.97 498.59 273.94 498.44C273.44 496.11 270.41 494.28 267.06 494.28C262.36 494.28 259.21 496.62 259.21 500.11C259.21 501.87 259.83 504.35 265.14 505.68L268.71 506.58C270.86 507.11 273.06 508.03 273.06 510.78C273.06 513.53 270.7 515.26 267.05 515.26C263.86 515.26 262.06 514.29 260.63 511.79C260.26 511.13 259.96 511.13 259.79 511.13L259.81 511.12Z" fill="#616668"/>
<path d="M283.6 496.89H281.65C280.53 496.89 279.9 496.31 279.9 495.27C279.9 494.23 280.53 493.68 281.65 493.68H283.6V489.68C283.6 488.44 284.41 487.59 285.55 487.59C286.69 487.59 287.5 488.44 287.5 489.68V493.68H290.51C291.63 493.68 292.26 494.26 292.26 495.27C292.26 496.28 291.63 496.89 290.51 496.89H287.5V510.79C287.5 512.77 288.2 513.71 290.15 513.84L290.49 513.86C291.77 513.95 292.35 514.47 292.35 515.39C292.35 516.58 291.68 517.21 289.5 517.21H289.25C285.48 517.21 283.59 515.37 283.59 511.64V496.88L283.6 496.89Z" fill="#616668"/>
<path d="M289.51 518.21H289.26C284.9 518.21 282.6 515.94 282.6 511.64V497.88H281.65C279.98 497.88 278.9 496.85 278.9 495.26C278.9 493.67 279.98 492.67 281.65 492.67H282.6V489.67C282.6 487.88 283.84 486.58 285.55 486.58C287.26 486.58 288.5 487.88 288.5 489.67V492.67H290.51C292.18 492.67 293.26 493.69 293.26 495.26C293.26 496.83 292.18 497.88 290.51 497.88H288.5V510.78C288.5 512.45 289.01 512.75 290.22 512.84L290.55 512.86C293.08 513.04 293.35 514.69 293.35 515.39C293.35 518.21 290.45 518.21 289.5 518.21H289.51ZM281.65 494.67C280.9 494.67 280.9 494.99 280.9 495.26C280.9 495.62 280.95 495.88 281.65 495.88H284.6V511.64C284.6 514.8 286.04 516.21 289.26 516.21H289.51C291.36 516.21 291.36 515.79 291.36 515.39C291.36 515.17 291.36 514.93 290.43 514.86L290.1 514.84C287.69 514.67 286.52 513.35 286.52 510.79V495.89H290.53C291.23 495.89 291.28 495.63 291.28 495.27C291.28 494.99 291.28 494.68 290.53 494.68H286.52V489.68C286.52 489 286.16 488.59 285.57 488.59C284.98 488.59 284.62 489 284.62 489.68V494.68H281.67L281.65 494.67Z" fill="#616668"/>
<path d="M298.5 515.35V495.25C298.5 494.08 299.26 493.27 300.34 493.27C301.42 493.27 302.18 494.08 302.18 495.25V497.5H302.27C302.94 495.07 305.23 493.28 307.57 493.28C308.42 493.28 309.03 493.48 309.41 493.84C309.75 494.15 309.9 494.6 309.9 495.14C309.9 495.75 309.7 496.2 309.29 496.51C308.89 496.85 308.28 497 307.43 497C303.9 497 302.4 499.54 302.4 502.53V515.36C302.4 516.6 301.59 517.45 300.45 517.45C299.31 517.45 298.5 516.6 298.5 515.36V515.35Z" fill="#616668"/>
<path d="M300.46 518.44C298.75 518.44 297.51 517.14 297.51 515.35V495.25C297.51 493.53 298.71 492.27 300.35 492.27C301.66 492.27 302.69 493.07 303.05 494.27C304.26 493.04 305.9 492.27 307.58 492.27C308.67 492.27 309.52 492.55 310.11 493.1C310.64 493.59 310.92 494.3 310.92 495.13C310.92 496.28 310.38 496.94 309.93 497.29C309.37 497.76 308.55 498 307.45 498C303.81 498 303.42 501.17 303.42 502.53V515.36C303.42 517.15 302.18 518.45 300.47 518.45L300.46 518.44ZM300.35 494.27C299.82 494.27 299.51 494.64 299.51 495.25V515.35C299.51 516.03 299.87 516.44 300.46 516.44C301.05 516.44 301.41 516.03 301.41 515.35V502.52C301.41 500.91 301.78 499.55 302.46 498.49H301.28L301.19 497.49V495.24C301.19 494.63 300.88 494.26 300.35 494.26V494.27ZM307.58 494.27C305.76 494.27 304 495.61 303.34 497.45C304.36 496.52 305.76 496 307.44 496C308.03 496 308.46 495.91 308.66 495.74C308.76 495.66 308.91 495.55 308.91 495.14C308.91 494.87 308.85 494.68 308.73 494.57C308.53 494.38 308.12 494.28 307.57 494.28L307.58 494.27Z" fill="#616668"/>
<path d="M314.33 523.84C314.33 522.99 314.91 522.4 315.9 522.4C316.46 522.4 316.62 522.42 317.23 522.42C318.71 522.42 320.13 521.52 321.05 518.69L321.59 517.05L313.55 496.09C313.42 495.71 313.35 495.35 313.35 495.06C313.35 493.98 314.18 493.26 315.3 493.26C316.22 493.26 316.8 493.66 317.16 494.7L323.61 513.12H323.68L330.15 494.7C330.51 493.67 331.03 493.26 331.99 493.26C333.11 493.26 333.9 494 333.9 495.06C333.9 495.35 333.83 495.71 333.7 496.09L325.08 518.66C323.06 524.03 321.15 525.76 317.29 525.76C315.4 525.76 314.35 525.06 314.35 523.83L314.33 523.84Z" fill="#616668"/>
<path d="M317.27 526.77C313.61 526.77 313.33 524.53 313.33 523.84C313.33 522.4 314.39 521.4 315.9 521.4C316.19 521.4 316.38 521.4 316.57 521.41C316.75 521.41 316.93 521.42 317.23 521.42C317.69 521.42 319.11 521.42 320.1 518.38L320.53 517.08L312.62 496.46C312.44 495.95 312.35 495.48 312.35 495.07C312.35 493.45 313.59 492.27 315.3 492.27C316.68 492.27 317.62 492.98 318.11 494.38L323.65 510.2L329.21 494.38C329.71 492.94 330.59 492.27 332 492.27C333.69 492.27 334.91 493.45 334.91 495.07C334.91 495.48 334.82 495.96 334.65 496.44L326.02 519.04C323.87 524.75 321.58 526.78 317.29 526.78L317.27 526.77ZM315.9 523.4C315.33 523.4 315.33 523.67 315.33 523.84C315.33 524.61 316.39 524.77 317.27 524.77C320.27 524.77 322.06 523.81 324.13 518.32L332.76 495.74C332.88 495.39 332.9 495.15 332.9 495.06C332.9 494.56 332.56 494.26 331.99 494.26C331.55 494.26 331.35 494.29 331.09 495.03L324.39 514.12H322.97L322.67 513.45L316.22 495.03C315.97 494.31 315.71 494.26 315.3 494.26C315.08 494.26 314.35 494.32 314.35 495.06C314.35 495.15 314.36 495.39 314.5 495.76L322.66 517.02L322.01 519C321.06 521.93 319.45 523.42 317.24 523.42C316.92 523.42 316.72 523.42 316.52 523.41C316.35 523.41 316.18 523.4 315.92 523.4H315.9Z" fill="#616668"/>
<path d="M350.71 500.82C350.71 490.65 356.44 484.09 365.31 484.09C371.22 484.09 376.02 487.12 377.93 491.95C378.15 492.51 378.27 493.07 378.27 493.54C378.27 494.66 377.55 495.38 376.45 495.38C375.46 495.38 374.77 494.84 374.32 493.7C372.79 489.88 369.31 487.82 365.31 487.82C358.98 487.82 354.87 492.94 354.87 500.82C354.87 508.7 358.94 513.85 365.34 513.85C369.56 513.85 372.89 512.08 374.41 508.44C374.84 507.45 375.4 507.02 376.3 507.02C377.38 507.02 378.14 507.78 378.14 508.84C378.14 509.54 377.96 510.14 377.6 510.86C375.47 515.15 371.24 517.58 365.31 517.58C356.37 517.58 350.71 511.09 350.71 500.82Z" fill="#616668"/>
<path d="M365.31 518.57C355.83 518.57 349.71 511.6 349.71 500.81C349.71 490.02 355.83 483.08 365.31 483.08C371.6 483.08 376.79 486.33 378.86 491.57C379.13 492.23 379.27 492.91 379.27 493.53C379.27 495.2 378.11 496.37 376.45 496.37C375.47 496.37 374.14 495.97 373.39 494.05C372.08 490.76 369.06 488.8 365.31 488.8C359.57 488.8 355.87 493.51 355.87 500.8C355.87 508.09 359.5 512.83 365.34 512.83C368.14 512.83 371.83 512 373.49 508.03C374.08 506.66 375 506 376.3 506C377.92 506 379.14 507.21 379.14 508.82C379.14 509.64 378.94 510.4 378.5 511.29C376.17 515.98 371.49 518.56 365.32 518.56L365.31 518.57ZM365.31 485.08C357.05 485.08 351.71 491.26 351.71 500.81C351.71 510.36 356.92 516.57 365.31 516.57C370.76 516.57 374.7 514.44 376.7 510.41C377.01 509.79 377.13 509.34 377.13 508.83C377.13 508.32 376.81 508.01 376.29 508.01C375.92 508.01 375.65 508.07 375.32 508.82C373.69 512.7 370.14 514.84 365.33 514.84C358.36 514.84 353.86 509.33 353.86 500.81C353.86 492.29 358.35 486.81 365.3 486.81C369.89 486.81 373.6 489.24 375.24 493.32C375.62 494.29 376.06 494.38 376.45 494.38C377 494.38 377.27 494.1 377.27 493.54C377.27 493.18 377.18 492.74 377 492.32C375.24 487.86 370.76 485.09 365.31 485.09V485.08Z" fill="#616668"/>
<path d="M384.07 505.35C384.07 497.89 388.43 493.27 394.9 493.27C401.37 493.27 405.7 497.9 405.7 505.35C405.7 512.8 401.34 517.43 394.9 517.43C388.46 517.43 384.07 512.78 384.07 505.35ZM401.72 505.35C401.72 499.85 399.02 496.7 394.89 496.7C390.76 496.7 388.04 499.84 388.04 505.35C388.04 510.86 390.76 514 394.89 514C399.02 514 401.72 510.86 401.72 505.35Z" fill="#616668"/>
<path d="M394.9 518.439C387.83 518.439 383.07 513.179 383.07 505.359C383.07 497.539 387.71 492.279 394.9 492.279C402.09 492.279 406.7 497.539 406.7 505.359C406.7 513.179 401.96 518.439 394.9 518.439ZM394.9 494.269C388.84 494.269 385.07 498.519 385.07 505.349C385.07 512.179 388.93 516.429 394.9 516.429C400.87 516.429 404.7 512.079 404.7 505.349C404.7 498.619 400.85 494.269 394.9 494.269ZM394.9 514.999C390.06 514.999 387.05 511.299 387.05 505.349C387.05 499.399 390.06 495.699 394.9 495.699C399.74 495.699 402.73 499.399 402.73 505.349C402.73 511.299 399.73 514.999 394.9 514.999ZM394.9 497.709C391.24 497.709 389.05 500.569 389.05 505.359C389.05 510.149 391.24 513.009 394.9 513.009C398.56 513.009 400.73 510.149 400.73 505.359C400.73 500.569 398.55 497.709 394.9 497.709Z" fill="#616668"/>
<path d="M411.82 508.83V495.35C411.82 494.11 412.63 493.26 413.77 493.26C414.91 493.26 415.72 494.11 415.72 495.35V508.13C415.72 511.93 417.49 513.97 421.11 513.97C424.91 513.97 427.2 511.36 427.2 507.39V495.35C427.2 494.11 428.01 493.26 429.15 493.26C430.29 493.26 431.1 494.11 431.1 495.35V515.45C431.1 516.57 430.38 517.43 429.26 517.43C428.14 517.43 427.4 516.58 427.4 515.45V513.23H427.31C425.92 515.93 423.49 517.43 419.9 517.43C414.8 517.43 411.81 514.13 411.81 508.83H411.82Z" fill="#616668"/>
<path d="M429.27 518.44C427.84 518.44 426.71 517.45 426.46 516.06C424.82 517.62 422.6 518.44 419.91 518.44C414.31 518.44 410.82 514.76 410.82 508.84V495.36C410.82 493.57 412.06 492.27 413.77 492.27C415.48 492.27 416.72 493.57 416.72 495.36V508.14C416.72 511.44 418.12 512.98 421.11 512.98C424.3 512.98 426.2 510.89 426.2 507.4V495.36C426.2 493.57 427.44 492.27 429.15 492.27C430.86 492.27 432.1 493.57 432.1 495.36V515.46C432.1 517.18 430.9 518.44 429.26 518.44H429.27ZM426.83 512.24H428.32L428.41 513.24V515.46C428.41 515.93 428.64 516.44 429.27 516.44C430.05 516.44 430.11 515.69 430.11 515.46V495.36C430.11 494.68 429.75 494.27 429.16 494.27C428.57 494.27 428.21 494.68 428.21 495.36V507.4C428.21 509.33 427.72 510.98 426.83 512.24ZM413.78 494.27C413.18 494.27 412.83 494.68 412.83 495.36V508.84C412.83 513.67 415.41 516.44 419.92 516.44C423.04 516.44 425.17 515.24 426.44 512.78L426.48 512.7C425.24 514.16 423.4 514.98 421.13 514.98C417.01 514.98 414.74 512.55 414.74 508.14V495.36C414.74 494.68 414.38 494.27 413.79 494.27H413.78Z" fill="#616668"/>
<path d="M438.47 515.35V495.25C438.47 494.08 439.23 493.27 440.31 493.27C441.39 493.27 442.15 494.08 442.15 495.25V497.41H442.24C443.54 494.89 446.04 493.28 449.65 493.28C454.77 493.28 457.74 496.58 457.74 501.88V515.36C457.74 516.6 456.93 517.45 455.79 517.45C454.65 517.45 453.84 516.6 453.84 515.36V502.58C453.84 498.81 452.07 496.74 448.47 496.74C444.87 496.74 442.38 499.35 442.38 503.3V515.36C442.38 516.6 441.57 517.45 440.43 517.45C439.29 517.45 438.48 516.6 438.48 515.36L438.47 515.35Z" fill="#616668"/>
<path d="M455.79 518.44C454.08 518.44 452.84 517.14 452.84 515.35V502.57C452.84 499.27 451.45 497.73 448.47 497.73C445.33 497.73 443.38 499.86 443.38 503.29V515.35C443.38 517.14 442.14 518.44 440.43 518.44C438.72 518.44 437.48 517.14 437.48 515.35V495.25C437.48 493.53 438.68 492.27 440.32 492.27C441.76 492.27 442.86 493.23 443.11 494.62C444.75 493.09 447 492.27 449.67 492.27C455.27 492.27 458.76 495.95 458.76 501.87V515.35C458.76 517.14 457.52 518.44 455.81 518.44H455.79ZM448.47 495.73C452.58 495.73 454.84 498.16 454.84 502.57V515.35C454.84 516.03 455.2 516.44 455.79 516.44C456.38 516.44 456.74 516.03 456.74 515.35V501.87C456.74 497.04 454.16 494.27 449.65 494.27C446.6 494.27 444.34 495.51 443.13 497.86L442.87 498.35C444.11 496.69 446.07 495.72 448.46 495.72L448.47 495.73ZM440.32 494.27C439.79 494.27 439.48 494.64 439.48 495.25V515.35C439.48 516.03 439.84 516.44 440.43 516.44C441.02 516.44 441.38 516.03 441.38 515.35V503.29C441.38 501.35 441.91 499.68 442.84 498.41H441.24L441.15 497.41V495.25C441.15 494.64 440.84 494.27 440.31 494.27H440.32Z" fill="#616668"/>
<path d="M463.86 505.4C463.86 498.06 468.13 493.27 474.6 493.27C479 493.27 482.84 495.76 483.74 499C483.83 499.29 483.87 499.58 483.87 499.83C483.87 500.86 483.22 501.54 482.21 501.54C481.36 501.54 480.88 501.18 480.35 500.17C479.11 497.86 477.34 496.71 474.64 496.71C470.57 496.71 467.83 500.12 467.83 505.36C467.83 510.6 470.62 514.01 474.64 514.01C477.45 514.01 479.15 512.8 480.37 510.55C480.93 509.49 481.36 509.18 482.21 509.18C483.22 509.18 483.89 509.88 483.89 510.89C483.89 511.18 483.82 511.52 483.71 511.88C482.59 515.11 478.88 517.45 474.64 517.45C468.17 517.45 463.86 512.8 463.86 505.41V505.4Z" fill="#616668"/>
<path d="M474.64 518.44C467.59 518.44 462.86 513.2 462.86 505.4C462.86 497.6 467.58 492.27 474.6 492.27C479.42 492.27 483.67 494.99 484.71 498.73C484.82 499.08 484.88 499.47 484.88 499.83C484.88 501.42 483.79 502.54 482.22 502.54C480.65 502.54 480 501.63 479.47 500.64C478.39 498.61 476.9 497.71 474.65 497.71C471.12 497.71 468.84 500.71 468.84 505.36C468.84 510.01 471.12 513.01 474.65 513.01C476.94 513.01 478.39 512.13 479.5 510.08C480.12 508.91 480.79 508.19 482.22 508.19C483.78 508.19 484.9 509.33 484.9 510.9C484.9 511.28 484.83 511.7 484.67 512.19C483.38 515.9 479.26 518.46 474.64 518.46V518.44ZM474.6 494.27C468.68 494.27 464.86 498.64 464.86 505.4C464.86 512.16 468.7 516.44 474.64 516.44C478.43 516.44 481.77 514.43 482.77 511.54C482.87 511.21 482.89 511 482.89 510.88C482.89 510.56 482.77 510.17 482.21 510.17C481.85 510.17 481.7 510.17 481.25 511.01C479.78 513.73 477.68 515 474.64 515C469.97 515 466.83 511.12 466.83 505.35C466.83 499.58 469.97 495.7 474.64 495.7C477.64 495.7 479.79 497 481.23 499.69C481.68 500.53 481.88 500.53 482.21 500.53C482.49 500.53 482.87 500.46 482.87 499.82C482.87 499.67 482.84 499.47 482.78 499.28C481.98 496.41 478.47 494.26 474.59 494.26L474.6 494.27Z" fill="#616668"/>
<path d="M490.08 487.321C490.08 485.971 491.18 484.891 492.51 484.891C493.84 484.891 494.96 485.971 494.96 487.321C494.96 488.671 493.86 489.751 492.51 489.751C491.16 489.751 490.08 488.651 490.08 487.321ZM490.55 515.351V495.361C490.55 494.121 491.36 493.271 492.5 493.271C493.64 493.271 494.45 494.121 494.45 495.361V515.351C494.45 516.591 493.64 517.441 492.5 517.441C491.36 517.441 490.55 516.591 490.55 515.351Z" fill="#616668"/>
<path d="M492.5 518.441C490.79 518.441 489.55 517.141 489.55 515.351V495.361C489.55 493.571 490.79 492.271 492.5 492.271C494.21 492.271 495.45 493.571 495.45 495.361V515.351C495.45 517.141 494.21 518.441 492.5 518.441ZM492.5 494.271C491.9 494.271 491.55 494.681 491.55 495.361V515.351C491.55 516.031 491.91 516.441 492.5 516.441C493.09 516.441 493.45 516.031 493.45 515.351V495.361C493.45 494.681 493.09 494.271 492.5 494.271ZM492.5 490.741C490.61 490.741 489.07 489.201 489.07 487.311C489.07 485.421 490.61 483.881 492.5 483.881C494.39 483.881 495.95 485.421 495.95 487.311C495.95 489.201 494.4 490.741 492.5 490.741ZM492.5 485.891C491.71 485.891 491.07 486.531 491.07 487.321C491.07 488.111 491.72 488.751 492.5 488.751C493.28 488.751 493.95 488.101 493.95 487.321C493.95 486.541 493.3 485.891 492.5 485.891Z" fill="#616668"/>
<path d="M502.24 515.351V486.311C502.24 485.071 503.05 484.221 504.19 484.221C505.33 484.221 506.14 485.071 506.14 486.311V515.351C506.14 516.591 505.33 517.441 504.19 517.441C503.05 517.441 502.24 516.591 502.24 515.351Z" fill="#616668"/>
<path d="M504.19 518.441C502.48 518.441 501.24 517.141 501.24 515.351V486.311C501.24 484.521 502.48 483.221 504.19 483.221C505.9 483.221 507.14 484.521 507.14 486.311V515.351C507.14 517.141 505.9 518.441 504.19 518.441ZM504.19 485.221C503.59 485.221 503.24 485.631 503.24 486.311V515.351C503.24 516.031 503.6 516.441 504.19 516.441C504.78 516.441 505.14 516.031 505.14 515.351V486.311C505.14 485.631 504.78 485.221 504.19 485.221Z" fill="#616668"/>
<path d="M524.31 505.35C524.31 497.89 528.67 493.27 535.14 493.27C541.61 493.27 545.94 497.9 545.94 505.35C545.94 512.8 541.58 517.43 535.14 517.43C528.7 517.43 524.31 512.78 524.31 505.35ZM541.96 505.35C541.96 499.85 539.26 496.7 535.13 496.7C531 496.7 528.28 499.84 528.28 505.35C528.28 510.86 531 514 535.13 514C539.26 514 541.96 510.86 541.96 505.35Z" fill="#616668"/>
<path d="M535.14 518.439C528.07 518.439 523.31 513.179 523.31 505.359C523.31 497.539 527.95 492.279 535.14 492.279C542.33 492.279 546.94 497.539 546.94 505.359C546.94 513.179 542.2 518.439 535.14 518.439ZM535.14 494.269C529.08 494.269 525.31 498.519 525.31 505.349C525.31 512.179 529.17 516.429 535.14 516.429C541.11 516.429 544.94 512.079 544.94 505.349C544.94 498.619 541.09 494.269 535.14 494.269ZM535.14 514.999C530.3 514.999 527.29 511.299 527.29 505.349C527.29 499.399 530.3 495.699 535.14 495.699C539.98 495.699 542.97 499.399 542.97 505.349C542.97 511.299 539.97 514.999 535.14 514.999ZM535.14 497.709C531.48 497.709 529.29 500.569 529.29 505.359C529.29 510.149 531.48 513.009 535.14 513.009C538.8 513.009 540.97 510.149 540.97 505.359C540.97 500.569 538.79 497.709 535.14 497.709Z" fill="#616668"/>
<path d="M553.43 515.37V496.88H551.5C550.49 496.88 549.84 496.3 549.84 495.29C549.84 494.28 550.49 493.67 551.5 493.67H553.43V491.06C553.43 486.59 555.56 484.43 559.38 484.43C561.45 484.43 562.55 485.1 562.55 486.25C562.55 486.97 562.21 487.42 561.49 487.62C561.15 487.71 560.77 487.75 560.28 487.75C558.21 487.75 557.32 488.78 557.32 491.19V493.66H560.78C561.79 493.66 562.44 494.31 562.44 495.28C562.44 496.25 561.79 496.87 560.78 496.87H557.34V515.36C557.34 516.62 556.58 517.43 555.39 517.43C554.2 517.43 553.44 516.62 553.44 515.36L553.43 515.37Z" fill="#616668"/>
<path d="M555.39 518.44C553.65 518.44 552.44 517.18 552.44 515.37V497.88H551.51C549.92 497.88 548.85 496.84 548.85 495.29C548.85 493.74 549.97 492.67 551.51 492.67H552.44V491.06C552.44 486.14 554.91 483.43 559.39 483.43C563.26 483.43 563.56 485.59 563.56 486.25C563.56 487.43 562.93 488.26 561.77 488.58C561.33 488.7 560.86 488.75 560.29 488.75C558.99 488.75 558.33 489.13 558.33 491.19V492.66H560.79C562.33 492.66 563.45 493.76 563.45 495.28C563.45 496.8 562.38 497.87 560.79 497.87H558.35V515.36C558.35 517.17 557.14 518.43 555.4 518.43L555.39 518.44ZM551.5 494.68C550.91 494.68 550.84 495.03 550.84 495.3C550.84 495.6 550.89 495.89 551.5 495.89H554.43V515.38C554.43 516.09 554.75 516.45 555.38 516.45C556.01 516.45 556.33 516.09 556.33 515.38V495.89H560.77C561.38 495.89 561.43 495.6 561.43 495.3C561.43 495.04 561.36 494.68 560.77 494.68H556.31V491.21C556.31 488.27 557.64 486.77 560.27 486.77C560.66 486.77 560.97 486.74 561.23 486.67C561.52 486.59 561.54 486.53 561.54 486.27C561.54 485.49 559.74 485.45 559.37 485.45C555.99 485.45 554.42 487.24 554.42 491.08V494.69H551.49L551.5 494.68Z" fill="#616668"/>
<path d="M579.53 500.84C579.53 490.55 585.28 484.08 594.47 484.08C603.66 484.08 609.41 490.55 609.41 500.84C609.41 511.13 603.66 517.57 594.47 517.57C585.28 517.57 579.53 511.12 579.53 500.84ZM605.25 500.84C605.25 492.84 601.09 487.81 594.47 487.81C587.85 487.81 583.69 492.84 583.69 500.84C583.69 508.84 587.85 513.84 594.47 513.84C601.09 513.84 605.25 508.81 605.25 500.84Z" fill="#616668"/>
<path d="M594.46 518.57C584.78 518.57 578.52 511.61 578.52 500.84C578.52 490.07 584.78 483.08 594.46 483.08C604.14 483.08 610.4 490.05 610.4 500.84C610.4 511.63 604.14 518.57 594.46 518.57ZM594.46 485.08C585.86 485.08 580.52 491.12 580.52 500.84C580.52 510.56 585.86 516.57 594.46 516.57C603.06 516.57 608.4 510.54 608.4 500.84C608.4 491.14 603.06 485.08 594.46 485.08ZM594.46 514.84C587.3 514.84 582.68 509.34 582.68 500.84C582.68 492.34 587.3 486.81 594.46 486.81C601.62 486.81 606.24 492.32 606.24 500.84C606.24 509.36 601.62 514.84 594.46 514.84ZM594.46 488.81C588.43 488.81 584.68 493.42 584.68 500.84C584.68 508.26 588.43 512.84 594.46 512.84C600.49 512.84 604.24 508.24 604.24 500.84C604.24 493.44 600.49 488.81 594.46 488.81Z" fill="#616668"/>
<path d="M616.13 515.35V495.25C616.13 494.08 616.89 493.27 617.97 493.27C619.05 493.27 619.81 494.08 619.81 495.25V497.41H619.9C621.2 494.89 623.7 493.28 627.31 493.28C632.43 493.28 635.4 496.58 635.4 501.88V515.36C635.4 516.6 634.59 517.45 633.45 517.45C632.31 517.45 631.5 516.6 631.5 515.36V502.58C631.5 498.81 629.73 496.74 626.13 496.74C622.53 496.74 620.04 499.35 620.04 503.3V515.36C620.04 516.6 619.23 517.45 618.09 517.45C616.95 517.45 616.14 516.6 616.14 515.36L616.13 515.35Z" fill="#616668"/>
<path d="M633.44 518.44C631.73 518.44 630.49 517.14 630.49 515.35V502.57C630.49 499.27 629.1 497.73 626.12 497.73C622.98 497.73 621.03 499.86 621.03 503.29V515.35C621.03 517.14 619.79 518.44 618.08 518.44C616.37 518.44 615.13 517.14 615.13 515.35V495.25C615.13 493.53 616.33 492.27 617.97 492.27C619.41 492.27 620.51 493.23 620.76 494.62C622.4 493.09 624.65 492.27 627.32 492.27C632.92 492.27 636.41 495.95 636.41 501.87V515.35C636.41 517.14 635.17 518.44 633.46 518.44H633.44ZM626.12 495.73C630.23 495.73 632.49 498.16 632.49 502.57V515.35C632.49 516.03 632.85 516.44 633.44 516.44C634.03 516.44 634.39 516.03 634.39 515.35V501.87C634.39 497.04 631.81 494.27 627.3 494.27C624.25 494.27 621.99 495.51 620.78 497.86L620.52 498.35C621.76 496.69 623.72 495.72 626.11 495.72L626.12 495.73ZM617.97 494.27C617.44 494.27 617.13 494.64 617.13 495.25V515.35C617.13 516.03 617.49 516.44 618.08 516.44C618.67 516.44 619.03 516.03 619.03 515.35V503.29C619.03 501.35 619.56 499.68 620.49 498.41H618.89L618.8 497.41V495.25C618.8 494.64 618.49 494.27 617.96 494.27H617.97Z" fill="#616668"/>
<path d="M643.92 496.89H641.97C640.85 496.89 640.22 496.31 640.22 495.27C640.22 494.23 640.85 493.68 641.97 493.68H643.92V489.68C643.92 488.44 644.73 487.59 645.87 487.59C647.01 487.59 647.82 488.44 647.82 489.68V493.68H650.83C651.95 493.68 652.58 494.26 652.58 495.27C652.58 496.28 651.95 496.89 650.83 496.89H647.82V510.79C647.82 512.77 648.52 513.71 650.47 513.84L650.81 513.86C652.09 513.95 652.67 514.47 652.67 515.39C652.67 516.58 652 517.21 649.82 517.21H649.57C645.8 517.21 643.91 515.37 643.91 511.64V496.88L643.92 496.89Z" fill="#616668"/>
<path d="M649.83 518.21H649.58C645.22 518.21 642.92 515.94 642.92 511.64V497.88H641.97C640.3 497.88 639.22 496.85 639.22 495.26C639.22 493.67 640.3 492.67 641.97 492.67H642.92V489.67C642.92 487.88 644.16 486.58 645.87 486.58C647.58 486.58 648.82 487.88 648.82 489.67V492.67H650.83C652.5 492.67 653.58 493.69 653.58 495.26C653.58 496.83 652.5 497.88 650.83 497.88H648.82V510.78C648.82 512.45 649.33 512.75 650.54 512.84L650.87 512.86C653.4 513.04 653.67 514.69 653.67 515.39C653.67 518.21 650.77 518.21 649.82 518.21H649.83ZM641.97 494.67C641.22 494.67 641.22 494.99 641.22 495.26C641.22 495.62 641.27 495.88 641.97 495.88H644.92V511.64C644.92 514.8 646.36 516.21 649.58 516.21H649.83C651.68 516.21 651.68 515.79 651.68 515.39C651.68 515.17 651.68 514.93 650.75 514.86L650.42 514.84C648.01 514.67 646.84 513.35 646.84 510.79V495.89H650.85C651.55 495.89 651.6 495.63 651.6 495.27C651.6 494.99 651.6 494.68 650.85 494.68H646.84V489.68C646.84 489 646.48 488.59 645.89 488.59C645.3 488.59 644.94 489 644.94 489.68V494.68H641.99L641.97 494.67Z" fill="#616668"/>
<path d="M657.4 510.43C657.4 506.43 660.48 503.92 665.87 503.6L672.59 503.22V501.27C672.59 498.42 670.7 496.71 667.47 496.71C664.93 496.71 663.2 497.63 661.9 499.94C661.54 500.59 661.02 500.88 660.28 500.88C659.27 500.88 658.55 500.18 658.55 499.13C658.55 498.64 658.71 498.07 659.02 497.51C660.35 494.95 663.76 493.26 667.56 493.26C673.04 493.26 676.5 496.22 676.5 500.87V515.45C676.5 516.62 675.74 517.43 674.66 517.43C673.58 517.43 672.8 516.62 672.8 515.45V513H672.71C671.32 515.67 668.33 517.42 665.19 517.42C660.54 517.42 657.42 514.61 657.42 510.41L657.4 510.43ZM672.58 508.16V506.25L666.31 506.63C663.17 506.83 661.37 508.22 661.37 510.43C661.37 512.64 663.23 514.11 666.04 514.11C669.72 514.11 672.58 511.53 672.58 508.16Z" fill="#616668"/>
<path d="M674.65 518.44C673.11 518.44 671.96 517.36 671.8 515.82C670.06 517.46 667.68 518.44 665.17 518.44C659.92 518.44 656.4 515.22 656.4 510.43C656.4 505.64 659.92 502.95 665.81 502.6L671.58 502.27V501.26C671.58 498.16 669 497.7 667.46 497.7C665.21 497.7 663.85 498.49 662.76 500.42C662.23 501.38 661.39 501.87 660.27 501.87C658.69 501.87 657.54 500.71 657.54 499.12C657.54 498.44 657.75 497.71 658.14 497.01C659.63 494.13 663.33 492.25 667.55 492.25C673.59 492.25 677.49 495.63 677.49 500.86V515.44C677.49 517.16 676.29 518.42 674.65 518.42V518.44ZM672.36 512.02H673.7L673.79 513.02V515.47C673.79 516.08 674.11 516.45 674.65 516.45C675.19 516.45 675.49 516.08 675.49 515.47V500.89C675.49 496.81 672.45 494.28 667.55 494.28C664.12 494.28 661.05 495.77 659.9 497.99C659.66 498.41 659.54 498.82 659.54 499.15C659.54 499.64 659.8 499.9 660.27 499.9C660.66 499.9 660.83 499.8 661.01 499.47C662.45 496.91 664.5 495.72 667.46 495.72C671.24 495.72 673.58 497.85 673.58 501.28V504.18L665.92 504.62C663.11 504.78 658.4 505.76 658.4 510.45C658.4 514.1 661.06 516.46 665.17 516.46C667.79 516.46 670.34 515.05 671.62 512.91C670.25 514.29 668.28 515.14 666.05 515.14C662.66 515.14 660.38 513.26 660.38 510.46C660.38 507.66 662.58 505.9 666.26 505.67L673.59 505.22V508.19C673.59 509.62 673.14 510.95 672.36 512.04V512.02ZM671.59 507.32L666.38 507.64C664.89 507.74 662.38 508.23 662.38 510.44C662.38 512.42 664.28 513.12 666.05 513.12C669.21 513.12 671.59 510.99 671.59 508.17V507.32Z" fill="#616668"/>
<path d="M683.76 515.35V495.25C683.76 494.08 684.52 493.27 685.6 493.27C686.68 493.27 687.44 494.08 687.44 495.25V497.5H687.53C688.2 495.07 690.49 493.28 692.83 493.28C693.68 493.28 694.29 493.48 694.67 493.84C695.01 494.15 695.16 494.6 695.16 495.14C695.16 495.75 694.96 496.2 694.55 496.51C694.15 496.85 693.54 497 692.69 497C689.16 497 687.66 499.54 687.66 502.53V515.36C687.66 516.6 686.85 517.45 685.71 517.45C684.57 517.45 683.76 516.6 683.76 515.36V515.35Z" fill="#616668"/>
<path d="M685.71 518.44C684 518.44 682.76 517.14 682.76 515.35V495.25C682.76 493.53 683.96 492.27 685.6 492.27C686.91 492.27 687.94 493.07 688.3 494.27C689.51 493.04 691.16 492.27 692.83 492.27C693.92 492.27 694.77 492.55 695.36 493.1C695.89 493.59 696.17 494.3 696.17 495.13C696.17 496.28 695.63 496.94 695.18 497.29C694.62 497.76 693.8 498 692.7 498C689.06 498 688.67 501.17 688.67 502.53V515.36C688.67 517.15 687.43 518.45 685.72 518.45L685.71 518.44ZM685.6 494.27C685.07 494.27 684.76 494.64 684.76 495.25V515.35C684.76 516.03 685.12 516.44 685.71 516.44C686.3 516.44 686.66 516.03 686.66 515.35V502.52C686.66 500.91 687.03 499.55 687.71 498.49H686.53L686.44 497.49V495.24C686.44 494.63 686.13 494.26 685.6 494.26V494.27ZM692.83 494.27C691.01 494.27 689.25 495.61 688.59 497.45C689.61 496.52 691.01 496 692.69 496C693.28 496 693.71 495.91 693.91 495.74C694.01 495.66 694.16 495.55 694.16 495.14C694.16 494.87 694.1 494.68 693.98 494.57C693.78 494.38 693.37 494.28 692.82 494.28L692.83 494.27Z" fill="#616668"/>
<path d="M699.96 487.321C699.96 485.971 701.06 484.891 702.39 484.891C703.72 484.891 704.84 485.971 704.84 487.321C704.84 488.671 703.74 489.751 702.39 489.751C701.04 489.751 699.96 488.651 699.96 487.321ZM700.43 515.351V495.361C700.43 494.121 701.24 493.271 702.38 493.271C703.52 493.271 704.33 494.121 704.33 495.361V515.351C704.33 516.591 703.52 517.441 702.38 517.441C701.24 517.441 700.43 516.591 700.43 515.351Z" fill="#616668"/>
<path d="M702.39 518.441C700.68 518.441 699.44 517.141 699.44 515.351V495.361C699.44 493.571 700.68 492.271 702.39 492.271C704.1 492.271 705.34 493.571 705.34 495.361V515.351C705.34 517.141 704.1 518.441 702.39 518.441ZM702.39 494.271C701.79 494.271 701.44 494.681 701.44 495.361V515.351C701.44 516.031 701.8 516.441 702.39 516.441C702.98 516.441 703.34 516.031 703.34 515.351V495.361C703.34 494.681 702.98 494.271 702.39 494.271ZM702.39 490.741C700.5 490.741 698.96 489.201 698.96 487.311C698.96 485.421 700.5 483.881 702.39 483.881C704.28 483.881 705.84 485.421 705.84 487.311C705.84 489.201 704.29 490.741 702.39 490.741ZM702.39 485.891C701.6 485.891 700.96 486.531 700.96 487.321C700.96 488.111 701.61 488.751 702.39 488.751C703.17 488.751 703.84 488.101 703.84 487.321C703.84 486.541 703.19 485.891 702.39 485.891Z" fill="#616668"/>
<path d="M710.78 505.35C710.78 497.89 715.14 493.27 721.61 493.27C728.08 493.27 732.41 497.9 732.41 505.35C732.41 512.8 728.05 517.43 721.61 517.43C715.17 517.43 710.78 512.78 710.78 505.35ZM728.43 505.35C728.43 499.85 725.73 496.7 721.6 496.7C717.47 496.7 714.75 499.84 714.75 505.35C714.75 510.86 717.47 514 721.6 514C725.73 514 728.43 510.86 728.43 505.35Z" fill="#616668"/>
<path d="M721.6 518.439C714.53 518.439 709.77 513.179 709.77 505.359C709.77 497.539 714.41 492.279 721.6 492.279C728.79 492.279 733.4 497.539 733.4 505.359C733.4 513.179 728.66 518.439 721.6 518.439ZM721.6 494.269C715.54 494.269 711.77 498.519 711.77 505.349C711.77 512.179 715.63 516.429 721.6 516.429C727.57 516.429 731.4 512.079 731.4 505.349C731.4 498.619 727.55 494.269 721.6 494.269ZM721.6 514.999C716.76 514.999 713.75 511.299 713.75 505.349C713.75 499.399 716.76 495.699 721.6 495.699C726.44 495.699 729.43 499.399 729.43 505.349C729.43 511.299 726.43 514.999 721.6 514.999ZM721.6 497.709C717.94 497.709 715.75 500.569 715.75 505.359C715.75 510.149 717.94 513.009 721.6 513.009C725.26 513.009 727.43 510.149 727.43 505.359C727.43 500.569 725.25 497.709 721.6 497.709Z" fill="#616668"/>
</g>
<defs>
<clipPath id="clip0_5888_26336">
<rect width="754.75" height="526.77" fill="white"/>
</clipPath>
</defs>
</svg>
